<mxfile host="app.diagrams.net" modified="2021-03-24T05:48:27.659Z" agent="5.0 (Windows NT 10.0; Win64; x64) AppleWebKit/537.36 (KHTML, like Gecko) Chrome/89.0.4389.90 Safari/537.36" etag="POaS0pSwYek96zw9C_7_" version="14.5.0" type="github" pages="3">
  <diagram id="vI_er32FzLTA2VBYqchx" name="Общая архитектура решения">
    <mxGraphModel dx="1422" dy="762" grid="1" gridSize="10" guides="1" tooltips="1" connect="1" arrows="1" fold="1" page="1" pageScale="1" pageWidth="827" pageHeight="1169" math="0" shadow="0">
      <root>
        <mxCell id="F3IjpVvEMc2qxhP0550E-0" />
        <mxCell id="F3IjpVvEMc2qxhP0550E-1" parent="F3IjpVvEMc2qxhP0550E-0" />
      </root>
    </mxGraphModel>
  </diagram>
  <diagram id="C5RBs43oDa-KdzZeNtuy" name="Приложение конфигуратора (standalone)">
    <mxGraphModel dx="981" dy="526" grid="1" gridSize="10" guides="1" tooltips="1" connect="1" arrows="1" fold="1" page="1" pageScale="1" pageWidth="827" pageHeight="1169" math="0" shadow="0">
      <root>
        <mxCell id="WIyWlLk6GJQsqaUBKTNV-0" />
        <mxCell id="WIyWlLk6GJQsqaUBKTNV-1" parent="WIyWlLk6GJQsqaUBKTNV-0" />
        <mxCell id="56DpWFyaeTY6TzINIU70-2" value="" style="edgeStyle=orthogonalEdgeStyle;rounded=0;orthogonalLoop=1;jettySize=auto;html=1;" edge="1" parent="WIyWlLk6GJQsqaUBKTNV-1" source="56DpWFyaeTY6TzINIU70-0" target="56DpWFyaeTY6TzINIU70-1">
          <mxGeometry relative="1" as="geometry" />
        </mxCell>
        <mxCell id="56DpWFyaeTY6TzINIU70-0" value="Габариты насоса с двигателем" style="rounded=0;whiteSpace=wrap;html=1;" vertex="1" parent="WIyWlLk6GJQsqaUBKTNV-1">
          <mxGeometry x="340" y="40" width="120" height="60" as="geometry" />
        </mxCell>
        <mxCell id="56DpWFyaeTY6TzINIU70-4" value="" style="edgeStyle=orthogonalEdgeStyle;rounded=0;orthogonalLoop=1;jettySize=auto;html=1;" edge="1" parent="WIyWlLk6GJQsqaUBKTNV-1" source="56DpWFyaeTY6TzINIU70-1" target="56DpWFyaeTY6TzINIU70-3">
          <mxGeometry relative="1" as="geometry" />
        </mxCell>
        <mxCell id="56DpWFyaeTY6TzINIU70-1" value="Расположение патрубков (направление по часам)" style="whiteSpace=wrap;html=1;rounded=0;" vertex="1" parent="WIyWlLk6GJQsqaUBKTNV-1">
          <mxGeometry x="340" y="120" width="120" height="60" as="geometry" />
        </mxCell>
        <mxCell id="56DpWFyaeTY6TzINIU70-6" value="" style="edgeStyle=orthogonalEdgeStyle;rounded=0;orthogonalLoop=1;jettySize=auto;html=1;" edge="1" parent="WIyWlLk6GJQsqaUBKTNV-1" source="56DpWFyaeTY6TzINIU70-3" target="56DpWFyaeTY6TzINIU70-5">
          <mxGeometry relative="1" as="geometry" />
        </mxCell>
        <mxCell id="56DpWFyaeTY6TzINIU70-8" value="" style="edgeStyle=orthogonalEdgeStyle;rounded=0;orthogonalLoop=1;jettySize=auto;html=1;" edge="1" parent="WIyWlLk6GJQsqaUBKTNV-1" source="56DpWFyaeTY6TzINIU70-3" target="56DpWFyaeTY6TzINIU70-7">
          <mxGeometry relative="1" as="geometry" />
        </mxCell>
        <mxCell id="56DpWFyaeTY6TzINIU70-3" value="Выбор типа двигателя" style="whiteSpace=wrap;html=1;rounded=0;" vertex="1" parent="WIyWlLk6GJQsqaUBKTNV-1">
          <mxGeometry x="340" y="200" width="120" height="60" as="geometry" />
        </mxCell>
        <mxCell id="56DpWFyaeTY6TzINIU70-5" value="Если дизель, то размещаем вплотную к стенке" style="whiteSpace=wrap;html=1;rounded=0;" vertex="1" parent="WIyWlLk6GJQsqaUBKTNV-1">
          <mxGeometry x="540" y="200" width="120" height="60" as="geometry" />
        </mxCell>
        <mxCell id="56DpWFyaeTY6TzINIU70-10" value="" style="edgeStyle=orthogonalEdgeStyle;rounded=0;orthogonalLoop=1;jettySize=auto;html=1;" edge="1" parent="WIyWlLk6GJQsqaUBKTNV-1" source="56DpWFyaeTY6TzINIU70-7" target="56DpWFyaeTY6TzINIU70-9">
          <mxGeometry relative="1" as="geometry" />
        </mxCell>
        <mxCell id="56DpWFyaeTY6TzINIU70-12" value="" style="edgeStyle=orthogonalEdgeStyle;rounded=0;orthogonalLoop=1;jettySize=auto;html=1;" edge="1" parent="WIyWlLk6GJQsqaUBKTNV-1" source="56DpWFyaeTY6TzINIU70-7" target="56DpWFyaeTY6TzINIU70-11">
          <mxGeometry relative="1" as="geometry" />
        </mxCell>
        <mxCell id="56DpWFyaeTY6TzINIU70-7" value="Исполнение модуля" style="whiteSpace=wrap;html=1;rounded=0;" vertex="1" parent="WIyWlLk6GJQsqaUBKTNV-1">
          <mxGeometry x="340" y="280" width="120" height="60" as="geometry" />
        </mxCell>
        <mxCell id="56DpWFyaeTY6TzINIU70-14" value="" style="edgeStyle=orthogonalEdgeStyle;rounded=0;orthogonalLoop=1;jettySize=auto;html=1;" edge="1" parent="WIyWlLk6GJQsqaUBKTNV-1" source="56DpWFyaeTY6TzINIU70-9" target="56DpWFyaeTY6TzINIU70-13">
          <mxGeometry relative="1" as="geometry" />
        </mxCell>
        <mxCell id="56DpWFyaeTY6TzINIU70-18" value="" style="edgeStyle=orthogonalEdgeStyle;rounded=0;orthogonalLoop=1;jettySize=auto;html=1;" edge="1" parent="WIyWlLk6GJQsqaUBKTNV-1" source="56DpWFyaeTY6TzINIU70-9" target="56DpWFyaeTY6TzINIU70-17">
          <mxGeometry relative="1" as="geometry" />
        </mxCell>
        <mxCell id="56DpWFyaeTY6TzINIU70-9" value="Шкафы ЭО" style="whiteSpace=wrap;html=1;rounded=0;" vertex="1" parent="WIyWlLk6GJQsqaUBKTNV-1">
          <mxGeometry x="340" y="360" width="120" height="60" as="geometry" />
        </mxCell>
        <mxCell id="56DpWFyaeTY6TzINIU70-11" value="Если ВВ отсек, то перегородка" style="whiteSpace=wrap;html=1;rounded=0;" vertex="1" parent="WIyWlLk6GJQsqaUBKTNV-1">
          <mxGeometry x="540" y="280" width="120" height="60" as="geometry" />
        </mxCell>
        <mxCell id="56DpWFyaeTY6TzINIU70-16" value="" style="edgeStyle=orthogonalEdgeStyle;rounded=0;orthogonalLoop=1;jettySize=auto;html=1;" edge="1" parent="WIyWlLk6GJQsqaUBKTNV-1" source="56DpWFyaeTY6TzINIU70-13" target="56DpWFyaeTY6TzINIU70-15">
          <mxGeometry relative="1" as="geometry" />
        </mxCell>
        <mxCell id="56DpWFyaeTY6TzINIU70-13" value="размер 600х600х2000" style="whiteSpace=wrap;html=1;rounded=0;" vertex="1" parent="WIyWlLk6GJQsqaUBKTNV-1">
          <mxGeometry x="540" y="360" width="120" height="60" as="geometry" />
        </mxCell>
        <mxCell id="56DpWFyaeTY6TzINIU70-15" value="Размещаем по отсекам" style="whiteSpace=wrap;html=1;rounded=0;" vertex="1" parent="WIyWlLk6GJQsqaUBKTNV-1">
          <mxGeometry x="740" y="360" width="120" height="60" as="geometry" />
        </mxCell>
        <mxCell id="56DpWFyaeTY6TzINIU70-20" value="" style="edgeStyle=orthogonalEdgeStyle;rounded=0;orthogonalLoop=1;jettySize=auto;html=1;" edge="1" parent="WIyWlLk6GJQsqaUBKTNV-1" source="56DpWFyaeTY6TzINIU70-17" target="56DpWFyaeTY6TzINIU70-19">
          <mxGeometry relative="1" as="geometry" />
        </mxCell>
        <mxCell id="56DpWFyaeTY6TzINIU70-22" value="" style="edgeStyle=orthogonalEdgeStyle;rounded=0;orthogonalLoop=1;jettySize=auto;html=1;" edge="1" parent="WIyWlLk6GJQsqaUBKTNV-1" source="56DpWFyaeTY6TzINIU70-17" target="56DpWFyaeTY6TzINIU70-21">
          <mxGeometry relative="1" as="geometry" />
        </mxCell>
        <mxCell id="56DpWFyaeTY6TzINIU70-17" value="Вентиляция, отопление, кондициаонирование" style="whiteSpace=wrap;html=1;rounded=0;" vertex="1" parent="WIyWlLk6GJQsqaUBKTNV-1">
          <mxGeometry x="340" y="440" width="120" height="60" as="geometry" />
        </mxCell>
        <mxCell id="56DpWFyaeTY6TzINIU70-19" value="Выбираем как опцию, добавляем в спеку" style="whiteSpace=wrap;html=1;rounded=0;" vertex="1" parent="WIyWlLk6GJQsqaUBKTNV-1">
          <mxGeometry x="540" y="440" width="120" height="60" as="geometry" />
        </mxCell>
        <mxCell id="56DpWFyaeTY6TzINIU70-24" value="" style="edgeStyle=orthogonalEdgeStyle;rounded=0;orthogonalLoop=1;jettySize=auto;html=1;entryX=0;entryY=0.5;entryDx=0;entryDy=0;" edge="1" parent="WIyWlLk6GJQsqaUBKTNV-1" source="56DpWFyaeTY6TzINIU70-21" target="56DpWFyaeTY6TzINIU70-25">
          <mxGeometry relative="1" as="geometry">
            <mxPoint x="540" y="550" as="targetPoint" />
          </mxGeometry>
        </mxCell>
        <mxCell id="56DpWFyaeTY6TzINIU70-29" style="edgeStyle=orthogonalEdgeStyle;rounded=0;orthogonalLoop=1;jettySize=auto;html=1;entryX=0.5;entryY=0;entryDx=0;entryDy=0;" edge="1" parent="WIyWlLk6GJQsqaUBKTNV-1" source="56DpWFyaeTY6TzINIU70-21" target="56DpWFyaeTY6TzINIU70-27">
          <mxGeometry relative="1" as="geometry" />
        </mxCell>
        <mxCell id="56DpWFyaeTY6TzINIU70-21" value="ЗРА" style="whiteSpace=wrap;html=1;rounded=0;" vertex="1" parent="WIyWlLk6GJQsqaUBKTNV-1">
          <mxGeometry x="340" y="520" width="120" height="60" as="geometry" />
        </mxCell>
        <mxCell id="56DpWFyaeTY6TzINIU70-25" value="Выбираем как опцию, добавляем в спеку" style="whiteSpace=wrap;html=1;rounded=0;" vertex="1" parent="WIyWlLk6GJQsqaUBKTNV-1">
          <mxGeometry x="540" y="520" width="120" height="60" as="geometry" />
        </mxCell>
        <mxCell id="56DpWFyaeTY6TzINIU70-26" value="" style="edgeStyle=orthogonalEdgeStyle;rounded=0;orthogonalLoop=1;jettySize=auto;html=1;entryX=0;entryY=0.5;entryDx=0;entryDy=0;" edge="1" parent="WIyWlLk6GJQsqaUBKTNV-1" source="56DpWFyaeTY6TzINIU70-27" target="56DpWFyaeTY6TzINIU70-28">
          <mxGeometry relative="1" as="geometry">
            <mxPoint x="540" y="630" as="targetPoint" />
          </mxGeometry>
        </mxCell>
        <mxCell id="56DpWFyaeTY6TzINIU70-31" value="" style="edgeStyle=orthogonalEdgeStyle;rounded=0;orthogonalLoop=1;jettySize=auto;html=1;" edge="1" parent="WIyWlLk6GJQsqaUBKTNV-1" source="56DpWFyaeTY6TzINIU70-27" target="56DpWFyaeTY6TzINIU70-30">
          <mxGeometry relative="1" as="geometry" />
        </mxCell>
        <mxCell id="56DpWFyaeTY6TzINIU70-27" value="КИП" style="whiteSpace=wrap;html=1;rounded=0;" vertex="1" parent="WIyWlLk6GJQsqaUBKTNV-1">
          <mxGeometry x="340" y="600" width="120" height="60" as="geometry" />
        </mxCell>
        <mxCell id="56DpWFyaeTY6TzINIU70-28" value="Выбираем как опцию, добавляем в спеку" style="whiteSpace=wrap;html=1;rounded=0;" vertex="1" parent="WIyWlLk6GJQsqaUBKTNV-1">
          <mxGeometry x="540" y="600" width="120" height="60" as="geometry" />
        </mxCell>
        <mxCell id="56DpWFyaeTY6TzINIU70-33" value="" style="edgeStyle=orthogonalEdgeStyle;rounded=0;orthogonalLoop=1;jettySize=auto;html=1;" edge="1" parent="WIyWlLk6GJQsqaUBKTNV-1" source="56DpWFyaeTY6TzINIU70-30" target="56DpWFyaeTY6TzINIU70-32">
          <mxGeometry relative="1" as="geometry" />
        </mxCell>
        <mxCell id="56DpWFyaeTY6TzINIU70-37" style="edgeStyle=orthogonalEdgeStyle;rounded=0;orthogonalLoop=1;jettySize=auto;html=1;entryX=0;entryY=0.5;entryDx=0;entryDy=0;" edge="1" parent="WIyWlLk6GJQsqaUBKTNV-1" source="56DpWFyaeTY6TzINIU70-30" target="56DpWFyaeTY6TzINIU70-36">
          <mxGeometry relative="1" as="geometry" />
        </mxCell>
        <mxCell id="56DpWFyaeTY6TzINIU70-39" style="edgeStyle=orthogonalEdgeStyle;rounded=0;orthogonalLoop=1;jettySize=auto;html=1;entryX=0;entryY=0.5;entryDx=0;entryDy=0;" edge="1" parent="WIyWlLk6GJQsqaUBKTNV-1" source="56DpWFyaeTY6TzINIU70-30" target="56DpWFyaeTY6TzINIU70-38">
          <mxGeometry relative="1" as="geometry" />
        </mxCell>
        <mxCell id="56DpWFyaeTY6TzINIU70-41" style="edgeStyle=orthogonalEdgeStyle;rounded=0;orthogonalLoop=1;jettySize=auto;html=1;entryX=0;entryY=0.5;entryDx=0;entryDy=0;" edge="1" parent="WIyWlLk6GJQsqaUBKTNV-1" source="56DpWFyaeTY6TzINIU70-30" target="56DpWFyaeTY6TzINIU70-40">
          <mxGeometry relative="1" as="geometry" />
        </mxCell>
        <mxCell id="56DpWFyaeTY6TzINIU70-43" value="" style="edgeStyle=orthogonalEdgeStyle;rounded=0;orthogonalLoop=1;jettySize=auto;html=1;" edge="1" parent="WIyWlLk6GJQsqaUBKTNV-1" source="56DpWFyaeTY6TzINIU70-30" target="56DpWFyaeTY6TzINIU70-42">
          <mxGeometry relative="1" as="geometry" />
        </mxCell>
        <mxCell id="56DpWFyaeTY6TzINIU70-30" value="Прочее" style="whiteSpace=wrap;html=1;rounded=0;" vertex="1" parent="WIyWlLk6GJQsqaUBKTNV-1">
          <mxGeometry x="340" y="680" width="120" height="60" as="geometry" />
        </mxCell>
        <mxCell id="56DpWFyaeTY6TzINIU70-35" value="" style="edgeStyle=orthogonalEdgeStyle;rounded=0;orthogonalLoop=1;jettySize=auto;html=1;" edge="1" parent="WIyWlLk6GJQsqaUBKTNV-1" source="56DpWFyaeTY6TzINIU70-32" target="56DpWFyaeTY6TzINIU70-34">
          <mxGeometry relative="1" as="geometry" />
        </mxCell>
        <mxCell id="56DpWFyaeTY6TzINIU70-32" value="Вакуумная система" style="whiteSpace=wrap;html=1;rounded=0;" vertex="1" parent="WIyWlLk6GJQsqaUBKTNV-1">
          <mxGeometry x="540" y="680" width="120" height="60" as="geometry" />
        </mxCell>
        <mxCell id="56DpWFyaeTY6TzINIU70-34" value="Геометрия ВакСист" style="whiteSpace=wrap;html=1;rounded=0;" vertex="1" parent="WIyWlLk6GJQsqaUBKTNV-1">
          <mxGeometry x="740" y="680" width="120" height="60" as="geometry" />
        </mxCell>
        <mxCell id="56DpWFyaeTY6TzINIU70-36" value="Трубопровод на всасе" style="rounded=0;whiteSpace=wrap;html=1;" vertex="1" parent="WIyWlLk6GJQsqaUBKTNV-1">
          <mxGeometry x="540" y="760" width="120" height="60" as="geometry" />
        </mxCell>
        <mxCell id="56DpWFyaeTY6TzINIU70-38" value="Плавающий водозаборный оголовок" style="rounded=0;whiteSpace=wrap;html=1;" vertex="1" parent="WIyWlLk6GJQsqaUBKTNV-1">
          <mxGeometry x="540" y="840" width="120" height="60" as="geometry" />
        </mxCell>
        <mxCell id="56DpWFyaeTY6TzINIU70-40" value="Стрела для подъема всасывающей стрелы" style="rounded=0;whiteSpace=wrap;html=1;" vertex="1" parent="WIyWlLk6GJQsqaUBKTNV-1">
          <mxGeometry x="540" y="920" width="120" height="60" as="geometry" />
        </mxCell>
        <mxCell id="56DpWFyaeTY6TzINIU70-45" value="" style="edgeStyle=orthogonalEdgeStyle;rounded=0;orthogonalLoop=1;jettySize=auto;html=1;" edge="1" parent="WIyWlLk6GJQsqaUBKTNV-1" source="56DpWFyaeTY6TzINIU70-42" target="56DpWFyaeTY6TzINIU70-44">
          <mxGeometry relative="1" as="geometry" />
        </mxCell>
        <mxCell id="56DpWFyaeTY6TzINIU70-42" value="Компоновка оборудования" style="whiteSpace=wrap;html=1;rounded=0;" vertex="1" parent="WIyWlLk6GJQsqaUBKTNV-1">
          <mxGeometry x="340" y="1000" width="120" height="60" as="geometry" />
        </mxCell>
        <mxCell id="56DpWFyaeTY6TzINIU70-44" value="Подбор размеров контейнера" style="whiteSpace=wrap;html=1;rounded=0;" vertex="1" parent="WIyWlLk6GJQsqaUBKTNV-1">
          <mxGeometry x="540" y="1000" width="120" height="60" as="geometry" />
        </mxCell>
      </root>
    </mxGraphModel>
  </diagram>
  <diagram id="U7V_ksJmndCovjFiWHij" name="Отрисовка в Revit">
    <mxGraphModel dx="1422" dy="762" grid="1" gridSize="10" guides="1" tooltips="1" connect="1" arrows="1" fold="1" page="1" pageScale="1" pageWidth="827" pageHeight="1169" math="0" shadow="0">
      <root>
        <mxCell id="_zmqA3p9ErLAyi2trxuh-0" />
        <mxCell id="_zmqA3p9ErLAyi2trxuh-1" parent="_zmqA3p9ErLAyi2trxuh-0" />
      </root>
    </mxGraphModel>
  </diagram>
</mxfile>
